<?xml version="1.0" encoding="UTF-8" standalone="no"?>
<!-- Created with Inkscape (http://www.inkscape.org/) -->

<svg
   width="180"
   height="180"
   viewBox="0 0 47.625 47.625"
   version="1.1"
   id="svg5"
   sodipodi:docname="sine.svg"
   inkscape:version="1.2.2 (b0a8486541, 2022-12-01)"
   inkscape:export-filename="/home/liquidsquid/Code/qml/JAS/icons/sine.png"
   inkscape:export-xdpi="96"
   inkscape:export-ydpi="96"
   xmlns:inkscape="http://www.inkscape.org/namespaces/inkscape"
   xmlns:sodipodi="http://sodipodi.sourceforge.net/DTD/sodipodi-0.dtd"
   xmlns="http://www.w3.org/2000/svg"
   xmlns:svg="http://www.w3.org/2000/svg">
  <sodipodi:namedview
     id="namedview7"
     pagecolor="#787878"
     bordercolor="#666666"
     borderopacity="1.0"
     inkscape:pageshadow="2"
     inkscape:pageopacity="0"
     inkscape:pagecheckerboard="true"
     inkscape:document-units="px"
     showgrid="true"
     inkscape:zoom="2.467017"
     inkscape:cx="116.94285"
     inkscape:cy="106.40381"
     inkscape:window-width="1440"
     inkscape:window-height="853"
     inkscape:window-x="0"
     inkscape:window-y="0"
     inkscape:window-maximized="1"
     inkscape:current-layer="layer1"
     inkscape:showpageshadow="0"
     inkscape:deskcolor="#d1d1d1">
    <inkscape:grid
       type="xygrid"
       id="grid3022" />
  </sodipodi:namedview>
  <defs
     id="defs2" />
  <g
     inkscape:label="Layer 1"
     inkscape:groupmode="layer"
     id="layer1">
    <path
       style="fill:none;stroke:#ccd7f7;stroke-width:2.64583;stroke-linecap:round;stroke-linejoin:round;stroke-miterlimit:4;stroke-dasharray:none;stroke-opacity:1"
       d="m 10.639862,23.812518 c 0.08863,-0.278671 0.177265,-0.55734 0.265899,-0.835489 0.08889,-0.277887 0.177524,-0.555516 0.266157,-0.832099 0.08889,-0.276324 0.177526,-0.551605 0.266159,-0.825322 0.08863,-0.273457 0.177526,-0.54561 0.266159,-0.815158 0.08863,-0.269804 0.177265,-0.537266 0.266159,-0.80212 0.08863,-0.264853 0.177264,-0.52684 0.266158,-0.785437 0.08863,-0.258858 0.177265,-0.514067 0.265898,-0.765887 0.08889,-0.251559 0.177526,-0.499468 0.266158,-0.742947 0.08889,-0.243476 0.177526,-0.482784 0.266159,-0.717137 0.08863,-0.234356 0.177527,-0.464016 0.266159,-0.688464 0.08864,-0.224448 0.177265,-0.443683 0.266159,-0.657182 0.08864,-0.213238 0.177265,-0.421263 0.266159,-0.622771 0.08864,-0.201769 0.177265,-0.39728 0.265897,-0.586536 0.08889,-0.188996 0.177527,-0.371473 0.266159,-0.547174 0.08889,-0.1757 0.177526,-0.344623 0.266158,-0.506246 0.08864,-0.161623 0.177528,-0.31621 0.26616,-0.462973 0.08863,-0.147025 0.177526,-0.28649 0.266158,-0.418135 0.08863,-0.131645 0.177266,-0.255209 0.266159,-0.371214 0.08863,-0.115739 0.177266,-0.223404 0.265897,-0.322724 0.08889,-0.09958 0.177527,-0.19082 0.266159,-0.273456 0.08889,-0.0829 0.177527,-0.157192 0.266158,-0.222884 0.08864,-0.06569 0.177528,-0.122785 0.266161,-0.171008 0.08863,-0.04848 0.177526,-0.08811 0.266159,-0.119129 0.08863,-0.03076 0.177264,-0.05292 0.266158,-0.06622 0.08863,-0.0133 0.177265,-0.01774 0.265898,-0.0133 0.08889,0.0044 0.177525,0.01774 0.266158,0.03988 0.08889,0.02215 0.177526,0.05292 0.266159,0.09254 0.08863,0.03962 0.177526,0.08811 0.266159,0.1452 0.08863,0.0571 0.177526,0.122785 0.266159,0.197077 0.08863,0.07428 0.177265,0.157192 0.266158,0.24817 0.08863,0.09125 0.177265,0.19082 0.265898,0.298482 0.08888,0.107664 0.177526,0.223405 0.266158,0.347229 0.08889,0.123562 0.177526,0.255209 0.266159,0.394674 0.08863,0.139205 0.177527,0.28623 0.26616,0.440555 0.08864,0.154585 0.177525,0.316207 0.266158,0.484869 0.08864,0.168923 0.177265,0.344623 0.266159,0.527101 0.08863,0.182479 0.177264,0.371734 0.265897,0.567246 0.08889,0.195513 0.177526,0.397281 0.266159,0.605046 0.08889,0.207503 0.177524,0.421262 0.266158,0.640238 0.08863,0.218973 0.177527,0.443681 0.26616,0.673082 0.08863,0.229661 0.177524,0.464015 0.266158,0.703322 0.08863,0.239047 0.177264,0.482524 0.266158,0.730435 0.08863,0.247647 0.177265,0.499208 0.266157,0.754676 0.08863,0.255209 0.177266,0.514067 0.2659,0.776052 0.08889,0.261726 0.177527,0.526581 0.266158,0.794041 0.08863,0.26746 0.177525,0.537266 0.266159,0.809159 0.08863,0.271893 0.177525,0.545609 0.266159,0.82063 0.08863,0.275281 0.177265,0.551866 0.266157,0.829232 0.08863,0.277367 0.177267,0.555777 0.266159,0.834186 0.08863,0.278671 0.177266,0.557341 0.265898,0.836009 0.08889,0.278411 0.177526,0.556821 0.266159,0.834186 0.08863,0.277367 0.177526,0.553952 0.266157,0.828973 0.08863,0.27528 0.177527,0.548998 0.266159,0.82089 0.08863,0.271891 0.177268,0.541698 0.26616,0.80916 0.08863,0.2672 0.177266,0.532314 0.266159,0.794039 0.08863,0.261986 0.177265,0.520844 0.265898,0.776053 0.08889,0.255209 0.177525,0.507029 0.266158,0.754677 0.08863,0.24765 0.177526,0.491387 0.266159,0.730433 0.08863,0.239046 0.177525,0.473662 0.266158,0.703323 0.08863,0.229402 0.177266,0.45385 0.26616,0.673084 0.08863,0.218974 0.177264,0.432473 0.266158,0.640237 0.08863,0.207764 0.177265,0.409534 0.265898,0.605044 0.08889,0.195512 0.177526,0.384507 0.266158,0.566985 0.08863,0.182739 0.177526,0.358441 0.266159,0.527101 0.08863,0.168923 0.177526,0.330547 0.266158,0.484871 0.08863,0.154324 0.177266,0.301349 0.26616,0.440815 0.08864,0.139205 0.177265,0.270849 0.266159,0.394673 0.08864,0.12383 0.177264,0.239568 0.265897,0.347231 0.08889,0.107665 0.177526,0.207243 0.266159,0.29848 0.08889,0.09097 0.177525,0.173877 0.266158,0.248172 0.08863,0.07428 0.177526,0.139986 0.266159,0.197075 0.08863,0.0571 0.177265,0.105321 0.266159,0.14494 0.08863,0.03988 0.177265,0.07065 0.266159,0.0928 0.08863,0.02216 0.177265,0.03519 0.265897,0.03963 0.08889,0.0044 0.177526,0 0.266159,-0.01304 0.08889,-0.0133 0.177527,-0.03544 0.266158,-0.06647 0.08863,-0.03076 0.177527,-0.07039 0.266159,-0.118875 0.08863,-0.04848 0.177265,-0.105575 0.26616,-0.171268 0.08863,-0.0657 0.177265,-0.139987 0.266158,-0.222623 0.08863,-0.08263 0.177266,-0.173875 0.265898,-0.273456 0.08889,-0.09932 0.177526,-0.207243 0.266158,-0.322987 0.08889,-0.115741 0.177527,-0.239566 0.266159,-0.371212 0.08863,-0.131384 0.177526,-0.27085 0.266158,-0.417874 0.08863,-0.146765 0.177266,-0.30135 0.26616,-0.462974 0.08864,-0.161622 0.177266,-0.330546 0.266158,-0.506246 0.08864,-0.175699 0.177266,-0.358179 0.265898,-0.547433 0.08889,-0.188997 0.177527,-0.384508 0.266158,-0.586276 0.08889,-0.201769 0.177527,-0.409533 0.26616,-0.623033 0.08863,-0.213498 0.177526,-0.432473 0.266159,-0.656921 0.08863,-0.224447 0.177526,-0.454109 0.266159,-0.688463 0.08863,-0.234614 0.177265,-0.473661 0.266159,-0.717138 0.08863,-0.24374 0.177264,-0.491388 0.265897,-0.742947 0.08889,-0.251819 0.177526,-0.50729 0.266159,-0.765886 0.08889,-0.258597 0.177525,-0.520845 0.266158,-0.785437 0.08863,-0.264855 0.177526,-0.532316 0.266159,-0.802121 0.08863,-0.269808 0.177526,-0.5417 0.266159,-0.815157 0.08863,-0.273717 0.177265,-0.548998 0.266159,-0.825582"
       title="sin(x)"
       id="path2713"
       sodipodi:nodetypes="cccccccccscccccccscccccccccscccccccccccscccccssccccscscccssccccccscccccccccccsccccccccccsscccccscc" />
  </g>
</svg>
